<?xml version="1.0" encoding="UTF-8"?>
<svg xmlns="http://www.w3.org/2000/svg" version="1.1" viewBox="0 0 512 512">
  <defs>
    <style>
      .cls-1 {
        fill: #d1d2d2;
      }

      .cls-2 {
        fill: #c3c3c3;
      }

      .cls-3 {
        fill: #908f8f;
      }

      .cls-4 {
        fill: #fff;
      }

      .cls-5 {
        fill: #1e1f11;
      }

      .cls-6 {
        fill: #0e0f0f;
      }

      .cls-7 {
        fill: #211d1e;
      }

      .cls-8 {
        fill: #b37c48;
      }

      .cls-9 {
        fill: #969796;
      }

      .cls-10 {
        fill: #a45a25;
      }

      .cls-11 {
        fill: #3a3a2d;
      }
    </style>
  </defs>
  <!-- Generator: Adobe Illustrator 28.7.5, SVG Export Plug-In . SVG Version: 1.2.0 Build 176)  -->
  <g>
    <g id="_レイヤー_1" data-name="レイヤー_1">
      <g>
        <path class="cls-10" d="M475.42,341.1c-25.74,1.59-70.63.3-106.67-.94.16-4.82.65-9.74.65-13.9,0-6.84,1.59-15.33-1.88-21.56-1.67-3-4.58-5.47-7.49-7.9,26.36.66,55.27,1.67,71.53.75,11.32-.63,27.01-1.35,38.48-1.86-.74,5.7-.67,11.42-.55,17.3.18,8.67,1.53,16.58,4.56,24.83.41,1.13.89,2.22,1.37,3.27Z"/>
        <path class="cls-10" d="M433.46,259.33c-1.9,2.8-4.83,4.51-7.31,6.81-6.22,5.81-11.84,14.49-16.64,21.87-17.83-7.5-38.19-18.56-54.78-26.75,7.16-2.27,10.22-8.21,11.41-17.93.66-5.37,1.11-9.19,2-12.2,18.6,8.52,46.03,18.21,65.32,28.2Z"/>
        <path class="cls-5" d="M356.64,225.28c3.19,1.88,7.1,3.82,11.5,5.85-.88,3.01-1.33,6.83-2,12.2-1.19,9.73-4.26,15.67-11.41,17.93-6.15-3.03-11.79-5.68-16.6-7.6-24-9.59-77.94,1.48-101.6-41.74-23.66-43.22-3.54-47.01,28.35-38.41,0,0,68.8,38.24,91.75,51.76Z"/>
        <path class="cls-1" d="M432.86,295.65c-6.73-1.23-14.75-4.01-23.35-7.63,4.8-7.38,10.42-16.06,16.64-21.87,2.48-2.31,5.41-4.01,7.31-6.81,9.07,4.7,16.35,9.46,20.06,14.21,13.46,17.22,5.24,26.83-20.65,22.1Z"/>
        <path class="cls-11" d="M112.46,204.88s25.26-52.52,92.29-47.44c67.03,5.09,86.03,23.53,107.09,47.44,21.06,23.91,28.09,59.42-68.47,58.34-96.56-1.08-172.93,3.07-130.91-58.34Z"/>
        <path class="cls-5" d="M298.16,293.26c-8.78,16.43-26.86,28.03-46.11,27.86-27.95-.25-53.74-32.8-53.74-32.8-20.74-9.94-45.28-7-69.45,8.01-14.99,9.29-29.84,23.22-43.58,41.58-6.57-6.83-14.01-16.66-21.5-30.71-21.96-41.23,50.99-125.31,119.4-124.7,3.88.04,7.62.11,11.23.24,16.62.55,30.5,2.02,42.4,4.38,19.88,3.96,34.27,10.46,46.75,19.53,7.08,5.15,13.55,11.13,20.06,17.94,0,0-1.53,13.35-.4,37.1.11,2.24.24,4.58.4,7.01.57,8.75-1.5,17.15-5.46,24.57Z"/>
        <path class="cls-6" d="M367.53,304.7c3.46,6.23,1.88,14.71,1.88,21.56,0,4.17-.49,9.08-.65,13.9-22.87-.78-42.18-1.55-50.78-1.55-26.49,0-101.34,6.77-101.34,6.77-34.33,14.93-109.27,7.83-109.27,7.83,0,0-9.39-2.08-22.08-15.31,35.88-47.98,79.43-65.69,113.03-49.58,0,0,25.78,32.56,53.73,32.8,27.95.24,53.42-24.32,51.58-52.43-1.85-28.11,0-44.11,0-44.11,26.36,27.56,5.23,53.63,5.23,53.63,0,0,3.81,17.72,33.77,18.21,5.55.09,11.42.22,17.41.37,2.91,2.43,5.82,4.9,7.49,7.9Z"/>
        <path class="cls-9" d="M506,324.45s8.17,6.89-12.71,14.16c-3.4,1.18-9.66,1.98-17.87,2.49-.47-1.05-.95-2.14-1.37-3.27-3.03-8.25-4.38-16.16-4.56-24.83-.12-5.88-.19-11.6.55-17.3,8.77-.39,15.07-.65,15.07-.65l13.61,4.98c13.62,4.99,8.83,12.9,8.83,12.9,7.03,8.79-1.57,11.53-1.57,11.53Z"/>
        <path class="cls-5" d="M441.17,278.95c.07.85.1,1.6.02,2.1-.68,4.66-1.78,7.05-4.99,10.71-5.29-4.27-19.65-3.9-26.25-3.87-6.89.04-11.47.2-17.79,2.19-5.01,1.58-10.11,3.27-15.38,4.81-5.12,1.48-10.38,2.81-15.87,3.73-2.15.36-4.2.78-6.15,1.25-6.73-2.4-13.12-4.54-18.94-6.28-31.99-9.59-17.94-3.46-37.68-.31-4.7.74-11.31,1.32-20.94,1.49-.27-13.97-13.69-34.59-19.32-30.1h-.01c-8.49,6.84-25.09,16.36-29.24,7.74-4.14-8.61-20.84-36.38-20.84-36.38-6.6-5.49-12.18-9.22-16.91-11.47-10.23-18.93-15.32-36.98,3.5-41.8,1.83-.47,3.88-.82,6.18-1.03,10.44-.94,22.9,1.29,36.22,5.41,15.06,4.69,31.22,11.8,46.75,19.53,32.23,16.05,61.73,34.74,73.14,39.73,13.03,5.69,51.54,19.73,84.47,32.57Z"/>
        <path class="cls-4" d="M494.67,337.51s7.27,12.26-22.89,5.29c-5.2-1.2-11.45-3.1-18.46-5.47,1.09-2,2.16-4.17,3.24-6.55.89-1.97,1.79-3.92,2.7-5.86,4.82-10.31,9.88-20.29,15.01-30.3.31-.6.6-1.22.87-1.86,2.05.9,3.97,1.77,5.74,2.58,0,0,0,.01.01.01,4.11,1.9,7.42,3.56,9.68,4.94,19.07,11.52,11.35,19.44,11.35,19.44,9.52,13.68-7.27,17.78-7.27,17.78Z"/>
        <path class="cls-6" d="M376.79,294.87c-5.12,1.48-10.38,2.81-15.87,3.73-2.15.36-4.2.78-6.15,1.25-6.73-2.4-13.12-4.54-18.94-6.28-31.99-9.59-17.94-3.46-37.68-.31-8.77,16.43-26.86,28.02-46.11,27.86-27.95-.24-53.73-32.8-53.73-32.8-20.74-9.94-45.28-7.01-69.46,8,14.2-26.45,36.91-38.3,63.85-21.99,0,0,16.79,5.23,33.29,6.42,12.57.92,24.97-.5,29.63-8.37,1.45-2.45,2.13-5.07,2.28-7.74.96-17.27-20.26-36.86-2.28-25.03,11.8,7.78,30.41,16.4,47.6,22.06,13.02,4.28,25.22,6.85,33.05,6.09,14.94-1.47,10.2,9.82,40.52,27.1Z"/>
        <path class="cls-1" d="M494.67,337.51s7.27,12.26-22.89,5.29c-5.2-1.2-11.45-3.1-18.46-5.47,1.09-2,2.16-4.17,3.24-6.55.89-1.97,1.79-3.92,2.7-5.86,27.58,4.9,41.4-1.76,21.64-29.57,4.11,1.9,7.42,3.56,9.68,4.94,19.07,11.52,11.35,19.44,11.35,19.44,9.52,13.68-7.27,17.78-7.27,17.78Z"/>
        <path class="cls-6" d="M277.22,294.75c-.42,0-.85,0-1.29.02-27.07.33-62.04,2.02-70.06-5.03-7.32-6.43,11.19-21.62,11.19-21.62-4.18-9.6-17.16-26.93-26.15-43.58,4.72,2.25,10.3,5.98,16.91,11.47,0,0,16.69,27.76,20.83,36.38,4.15,8.62,20.75-.89,29.23-7.72,5.63-4.52,19.06,16.11,19.33,30.09Z"/>
        <path class="cls-4" d="M110.13,320.04c-.09.14-.17.26-.26.38-.06.08-.11.17-.17.24-1.08,1.49-1.62,1.78-1.71,1.55h0c1.17-1.09,1.91-1.92,2.14-2.17Z"/>
        <path class="cls-10" d="M459.26,324.91c-.91,1.94-1.81,3.89-2.7,5.86-1.08,2.39-2.15,4.56-3.24,6.55-27.7-9.39-67.06-26.27-98.55-37.47,1.96-.47,4-.89,6.15-1.25,5.49-.92,10.75-2.26,15.87-3.73,6.49,3.69,14.58,7.67,24.83,11.85,21.26,8.67,41.73,15.35,57.64,18.19Z"/>
        <path class="cls-8" d="M475.15,292.76c-.27.63-.56,1.25-.87,1.86-5.14,10.01-10.2,19.99-15.01,30.3-15.91-2.84-36.38-9.51-57.64-18.19-10.25-4.19-18.34-8.16-24.83-11.85,5.27-1.54,10.37-3.23,15.38-4.81,6.32-1.99,10.9-2.15,17.79-2.19,6.59-.03,20.96-.39,26.25,3.87,3.21-3.66,4.31-6.05,4.99-10.71.08-.5.05-1.24-.02-2.1,12.77,4.97,24.7,9.77,33.97,13.81Z"/>
        <path class="cls-1" d="M213.37,266.48c4.41,3.34,10.14,14.02,12.96,19.48,4.29,8.32,10.57,13.97,1.67,21.82-6.77,5.97-14.91,9.7-22.15,15.85-5.51,4.68-9.74,10.77-15.32,15.22-11.88,9.48-32.74,11.21-47.44,11.17-7.72-.02-27.91-.56-22.27-11.75,3.96-7.85,16.74-17.34,23.46-23.43,9.5-8.6,18.78-16.96,27.41-27.16,10.64-12.57,23.18-15.42,41.67-21.2Z"/>
        <path class="cls-4" d="M216.63,254.06c-.59-1.18-1.24-2.34-1.97-3.45-.48-.74-.98-1.48-1.52-2.19-.27-.35-.54-.7-.81-1.05-.83-1.03-1.72-2.04-2.64-3.01-.31-.32-.62-.64-.94-.95-2.85-2.83-6.04-5.34-9.32-7.53-.73-.48-1.47-.95-2.2-1.42-.37-.22-.74-.45-1.1-.67-.74-.43-1.48-.86-2.21-1.27-.73-.41-1.47-.8-2.19-1.18-.72-.38-1.45-.74-2.15-1.09-1.06-.52-2.12-1.01-3.13-1.48-.34-.15-.67-.3-1-.44-.57-.25-1.15-.5-1.75-.74h-.01c-.58-.24-1.18-.47-1.79-.69-.6-.22-1.21-.43-1.83-.63-7.5-2.43-15.68-2.92-22.14,3.52-.52.52-1.02,1.08-1.53,1.7-.17.21-.33.41-.49.63-.33.42-.64.87-.96,1.34-.63.94-1.23,1.99-1.81,3.11-.25.5-.5.99-.75,1.5-.47.97-.92,1.94-1.35,2.91,1.32,4.85-1.61,11-6.09,15.79-.91,2.68-1.77,5.3-2.61,7.82-.35,1.09-.71,2.16-1.07,3.21,1.11.03,2.08.35,2.78,1.01,5.97,5.59,1.99,19.68,1.99,19.68-4,6.42-13.07,8.41-19.86,5.68-.73.9-1.5,1.86-2.3,2.92-.6.8-1.23,1.67-1.89,2.61-.13.18-.26.37-.39.56-.26.39-.53.78-.8,1.19-.8,1.22-1.65,2.57-2.53,4.04-.29.5-.59,1-.89,1.54-.3.52-.6,1.06-.91,1.62-.31.56-.62,1.13-.94,1.73-.47.89-.95,1.83-1.46,2.8-.06.13-.13.25-.19.37-.07.14-.14.27-.2.4-1.47,2.81-2.61,4.74-3.48,6.03,0,0-.01,0-.02.03-.01.02-.02.04-.04.05-.09.14-.17.26-.26.38-.05.08-.11.16-.17.24-1.08,1.49-1.62,1.78-1.71,1.55-2.12,1.99-5.67,4.87-10.14,6.85-6,2.66,1.61,17.94,22.32,21.99,7.5-1.53,15.24-3.28,20.73-3.67,3.89-.28,7.69-.94,11.38-2,0,0-1.95-.48-4.96-1.46,3.01.96,4.96,1.45,4.96,1.45h0c3.55-1.02,7-2.43,10.34-4.23,9.21-4.97,17.59-12.97,24.91-24.44,14.58-22.84,32.65-33.69,29.09-62.66ZM168.2,289.24c-6.26,3.15-10.35,7.45-12.81,10.52-2.46,3.06-5.74,8-7.44,14.8-1.69,6.8-8.97,8.47-12.17,8.12-3.2-.35-6.39-4.46-.86-3.11,5.54,1.33,10.33-1.89,10.84-8.05.52-6.15,6.8-14.02,6.8-14.02,0,0,6.3-7.87,12.19-9.74,5.89-1.86,7.99-7.23,5.46-12.33-2.53-5.11,2.18-2.89,3.22.15,1.05,3.05,1.02,10.52-5.24,13.66Z"/>
        <g>
          <path class="cls-5" d="M214.06,242.48c-1.53-4.62-3.65-9.07-6.48-13.32-13.19-19.79-37.59-29.82-59.16-33.78-1.81,2.63-3.92,5.94-5.9,9.6-3.27,6.07-6.16,13.11-6.61,19.6,0,0-6.86-5.32-14.49-5.26-4.87.04-10.04,2.27-13.94,9.48-.4.74-.79,1.55-1.16,2.4-9.65,22.08,11.07,35.02-3.22,36.56-14.29,1.56-28.81,12.73-28.81,24.99s9.89,10.34,13.76,11.35c2.22.58-6,3.86-9.32,12.97-.01.01-.01.03-.02.04-.52,1.42-.91,2.97-1.13,4.68.47.53.95,1.08,1.44,1.66.29.33.58.67.88.99-.31-.32-.6-.65-.89-.99-.48-.56-.95-1.1-1.44-1.64-.83,6.47.86,15.12,8.21,26.61,9.02,3.78,17.12,5.26,21.62,4.79,3.82-.41,8.27-1.24,12.81-2.16-20.72-4.04-28.32-19.33-22.32-21.99,4.47-1.99,8.02-4.87,10.14-6.85.09.23.62-.06,1.71-1.55.06-.07.11-.16.17-.24.09-.12.17-.24.26-.38.02-.01.03-.03.04-.05.01-.02.02-.03.02-.03.87-1.29,2.02-3.22,3.48-6.03.06-.13.13-.26.2-.4.05-.12.11-.24.18-.37.5-.97.98-1.91,1.47-2.8.31-.59.63-1.16.94-1.73.3-.55.61-1.09.91-1.62.3-.53.59-1.03.89-1.54.87-1.48,1.72-2.82,2.53-4.04.27-.41.53-.8.8-1.19.13-.19.26-.38.39-.56.64-.94,1.27-1.81,1.89-2.61.79-1.06,1.56-2.02,2.3-2.92h0c.95-1.17,1.86-2.23,2.73-3.25.21-.24.41-.48.61-.71.4-.48.79-.95,1.18-1.44,1.95-2.38,3.73-4.83,5.5-8.28,1.87-3.66,3.47-7.98,5.07-12.7.36-1.05.72-2.12,1.07-3.21.83-2.52,1.69-5.13,2.59-7.8.25-.73.5-1.48.76-2.22.85-2.45,1.76-4.95,2.75-7.46.2-.5.4-1,.6-1.51.62-1.55,1.28-3.09,1.99-4.64.44-.96.89-1.94,1.36-2.9.25-.5.5-.99.75-1.5.57-1.12,1.17-2.17,1.81-3.11.32-.47.63-.92.96-1.34.16-.22.32-.42.49-.63.5-.61,1-1.17,1.53-1.7,6.46-6.44,14.64-5.95,22.14-3.52.61.2,1.22.41,1.83.63.6.22,1.19.45,1.79.69h.01c.59.23,1.17.48,1.75.73.33.14.66.29,1,.45,1.01.45,2.07.94,3.13,1.48.7.34,1.43.71,2.15,1.09.72.38,1.46.77,2.19,1.18.73.41,1.47.83,2.21,1.27.36.22.73.45,1.1.67.73.45,1.47.92,2.2,1.42,3.28,2.19,6.47,4.7,9.32,7.53.32.31.63.63.94.95.93.97,1.81,1.98,2.64,3.01.27.35.54.7.81,1.05.53.71,1.04,1.45,1.52,2.19.72,1.11,1.37,2.27,1.97,3.45-.48-3.93-1.32-7.81-2.57-11.57Z"/>
          <path class="cls-11" d="M87.29,210.25s-13.15-28.3-8.57-44.52c4.58-16.22,16.55-5.6,34.9,6.15,18.35,11.75,18.66,32.78,6.27,49.65-12.39,16.87-27.88.87-32.61-11.28Z"/>
          <path class="cls-2" d="M95.78,165.93c7.98,4.07,29.28,23.81,27.27,30.33-1.13,3.65-6.64,13.18-13.11,17.89,0,0-21-29.64-20.5-49.5,1.47-.57,3.52-.16,6.34,1.28Z"/>
          <path class="cls-3" d="M89.44,164.66c-.5,19.86,20.5,49.5,20.5,49.5-5.07,3.69-10.71,4.44-15.3-2.82,0,0-9.2-22.86-8.88-34.1.21-7.25,1-11.55,3.68-12.58Z"/>
          <path class="cls-11" d="M42.6,289s-24.59,3.7-36.83,12.19c-12.24,8.49,5.15,16.86,22.87,23.12,17.71,6.26,29.36,16.11,40.74-4.22,11.38-20.34-8.89-35.11-26.78-31.08Z"/>
          <path class="cls-2" d="M57.65,303.46c4.66,5.5,6.5,12.85.93,17.18,0,0-5.84,5.37-20.88.01-13.02-4.64-28.47-9.06-27.95-13.93,7.9-6.09,47.91-3.27,47.91-3.27Z"/>
          <path class="cls-3" d="M51.43,298.28c2.31,1.28,4.47,3.1,6.22,5.18,0,0-40.01-2.83-47.91,3.27.08-.76.53-1.52,1.46-2.31,6.82-5.8,31.81-10.82,40.23-6.14Z"/>
          <path class="cls-5" d="M142.51,204.99c-3.27,6.07-6.15,13.11-6.61,19.6,0,0-19.94-15.47-29.6,6.63-9.65,22.08,11.07,35.02-3.22,36.57-14.3,1.55-28.82,12.73-28.82,24.99s9.88,10.34,13.76,11.35c2.57.67-8.84,4.96-10.47,17.68.47.54.95,1.09,1.43,1.65.29.34.58.67.88,1-.31-.33-.6-.65-.89-.99-.48-.56-.95-1.11-1.43-1.64h0c-.39-.45-.77-.89-1.15-1.32t0,0c-.78-.85-1.53-1.68-2.28-2.48-.37-.4-.74-.79-1.12-1.18-.37-.4-.75-.8-1.13-1.2-.74-.77-1.48-1.52-2.2-2.26-.35-.36-.71-.73-1.05-1.09-.71-.72-1.38-1.41-2.02-2.09-.33-.34-.65-.68-.97-1.02-.63-.67-1.24-1.33-1.82-1.99-5.28-5.89-8.61-11.32-8.61-19.76,0-.35,0-.71.02-1.08.02-.58.05-1.18.11-1.79.02-.3.05-.6.08-.91.04-.43.09-.86.15-1.31.04-.32.08-.63.14-.95.1-.64.21-1.28.34-1.95.15-.83.34-1.67.54-2.54.14-.58.28-1.17.44-1.78.24-.92.49-1.85.77-2.81.12-.41.25-.83.38-1.25.21-.68.43-1.37.66-2.08.14-.4.27-.8.41-1.22.05-.17.12-.34.18-.53.16-.46.33-.94.5-1.42.22-.62.44-1.24.68-1.88,6.44-17.32,15.15-30.94,24.8-40.63,3.41-3.44,6.95-6.39,10.55-8.83.33-.23.66-.44.99-.65,1.31-.85,2.62-1.64,3.95-2.36.33-.18.65-.36.99-.53.66-.34,1.33-.67,1.99-.98,1.32-.62,2.65-1.17,3.98-1.65.66-.24,1.33-.46,1.99-.67,2.64-.83,5.28-1.38,7.88-1.66,6.75-.72,15.29-1.36,24.83-.99Z"/>
          <path class="cls-11" d="M148.42,195.39c-1.81,2.62-3.93,5.94-5.91,9.6-9.54-.37-18.08.27-24.83.99-2.6.28-5.24.83-7.88,1.66-.66.21-1.32.43-1.99.67-1.33.48-2.65,1.04-3.98,1.65-.66.31-1.33.64-1.99.98-.34.16-.66.35-.99.53-1.33.72-2.64,1.51-3.95,2.36-.33.21-.66.43-.99.65-3.59,2.44-7.13,5.39-10.55,8.83-9.65,9.69-18.36,23.32-24.8,40.63-.24.64-.46,1.26-.68,1.88-.17.48-.34.95-.5,1.42-.06.18-.13.35-.18.53-.14.42-.27.82-.41,1.22-.24.71-.45,1.4-.66,2.08-.14.43-.26.84-.38,1.25-.28.96-.54,1.9-.77,2.81-.16.61-.31,1.2-.44,1.78-.2.87-.38,1.72-.54,2.53h0s-6.04,12.86-.6,46.46c-1.93-2.43-3.72-5.04-5.34-7.83-15.04-26.17,5.16-65.87,5.28-66.09,20.17-39.51,38.47-53.04,57.18-57.4,7.61-1.78,21.08-1.91,35.89.81Z"/>
          <path class="cls-5" d="M144.95,256.75s-.01.01-.02.02c-2.66,2.82-5.85,5.17-9.03,6.47-10.67,4.39-24.57,16.78-21.31,29.87,3.26,13.09-6.84,24.34-16.74,20.84-9.91-3.51-15.52-4.94-19.15,3.14-.01.01-.01.03-.02.04-1.18,2.54-4.02,1.24-6.86-2.76-3.08-4.31-6.15-11.75-7.16-20.92-.98-8.88-.02-19.4,4.78-30.23,7.5-16.9,18.86-29.41,29.54-37.57,9.81-7.49,19.05-11.31,24.21-11.49.4-.01.8-.01,1.17.01,9.77.4,11.54,10.42,11.54,10.42,0,0,1.33,4.67,11.44,11.43,2,1.33,3.17,3.03,3.69,4.93h0c1.32,4.86-1.61,11.01-6.09,15.8Z"/>
          <path class="cls-4" d="M108.87,320.7c.35-.32.79-.59,1.31-.73,0,0-.01,0-.02.03-.01.02-.02.04-.04.05-.09.14-.17.26-.26.38-.06.08-.11.17-.17.24-1.08,1.49-1.62,1.78-1.71,1.55h0c-.03-.08-.02-.18.02-.3.01-.04.03-.08.05-.13.04-.1.1-.21.17-.33.11-.19.28-.41.48-.6.05-.05.11-.1.16-.15Z"/>
          <path class="cls-4" d="M126.17,294.15c.95-1.16,1.86-2.23,2.73-3.25.21-.24.41-.48.61-.71.4-.48.8-.95,1.18-1.44,1.95-2.38,3.73-4.83,5.5-8.28,1.87-3.66,3.47-7.98,5.07-12.7,1.11.03,2.08.35,2.78,1.01,5.97,5.59,1.99,19.68,1.99,19.68-4,6.42-13.07,8.41-19.86,5.68Z"/>
          <path class="cls-4" d="M144.95,256.75c.24-.72.49-1.46.74-2.2.86-2.45,1.77-4.95,2.75-7.46.2-.5.4-1,.6-1.51.63-1.55,1.29-3.08,2-4.63,1.32,4.85-1.61,11-6.09,15.79Z"/>
          <path class="cls-4" d="M157.94,229.77c-.52.52-1.02,1.08-1.53,1.7.49-.61,1-1.17,1.53-1.7Z"/>
          <path class="cls-4" d="M168.2,289.24c-6.26,3.15-10.35,7.45-12.81,10.52-2.46,3.06-5.74,8-7.44,14.8-1.69,6.8-8.97,8.47-12.17,8.12-3.2-.35-6.39-4.46-.86-3.11,5.54,1.33,10.33-1.89,10.84-8.05.52-6.15,6.8-14.02,6.8-14.02,0,0,6.3-7.87,12.19-9.74,5.89-1.86,7.99-7.23,5.46-12.33-2.53-5.11,2.18-2.89,3.22.15,1.05,3.05,1.02,10.52-5.24,13.66Z"/>
          <path class="cls-5" d="M84.78,329.06c-.7-.56-1.39-1.14-2.05-1.76.66.6,1.35,1.18,2.05,1.76Z"/>
          <path class="cls-5" d="M110.19,319.96s-.01,0-.02.03c-.01.02-.02.04-.04.05-.09.14-.17.26-.26.38-.06.08-.11.17-.17.24-1.08,1.49-1.62,1.78-1.71,1.55h0c-.03-.08-.02-.18.02-.3.01-.04.03-.08.05-.13.04-.1.1-.21.17-.33.12-.19.28-.4.48-.6.05-.05.11-.1.16-.15.35-.32.79-.59,1.31-.73Z"/>
          <path d="M146.04,288.47c-4,6.42-13.07,8.41-19.86,5.68h0c-2.2-.88-4.17-2.27-5.64-4.16-5.31-6.78,12.38-22.44,20.73-22.22,1.11.03,2.08.35,2.78,1.01,5.97,5.59,1.99,19.68,1.99,19.68Z"/>
          <path class="cls-7" d="M168.2,289.24c-6.26,3.15-10.35,7.45-12.81,10.52-2.46,3.06-5.74,8-7.44,14.8-1.69,6.8-8.97,8.47-12.17,8.12-3.2-.35-6.39-4.46-.86-3.11,5.54,1.33,10.33-1.89,10.84-8.05.52-6.15,6.8-14.02,6.8-14.02,0,0,6.3-7.87,12.19-9.74,5.89-1.86,7.99-7.23,5.46-12.33-2.53-5.11,2.18-2.89,3.22.15,1.05,3.05,1.02,10.52-5.24,13.66Z"/>
          <path d="M131.44,228.01s-6.14,5.43-6.8,13.89c-.66,8.46,6.82,12.23,6.23,8.53-.59-3.7-2.62-4.7-.22-12.77,2.4-8.06,4.35-11.82.79-9.66Z"/>
          <path class="cls-8" d="M108.13,235.19s-1.58,9.45,2.84,12.4c4.41,2.95,10.62-6.36,10.34-13.05-.27-6.69-10.47-17.08-13.18.64Z"/>
          <path d="M88.14,305.41s2.82-7.7,10.46-11.4c7.64-3.69,13.87,1.9,10.21,2.7-3.66.8-5.34-.73-11.97,4.44-6.63,5.18-9.42,8.35-8.7,4.25Z"/>
          <path class="cls-8" d="M86.33,281.09s8.23-4.91,12.59-1.88c4.36,3.04-2.05,12.21-8.38,14.39-6.33,2.18-19.72-3.53-4.2-12.51Z"/>
          <path class="cls-5" d="M85.75,348.43c-10.27-4.32-21.7-11.64-30.34-22.53-5.44-33.6.6-46.45.6-46.45-.13.67-.24,1.32-.34,1.95-.05.33-.1.64-.14.95-.06.44-.12.88-.15,1.31-.04.31-.06.61-.08.91-.05.61-.09,1.21-.11,1.79,0,.37-.02.73-.02,1.08,0,8.44,3.33,13.87,8.61,19.76.58.65,1.19,1.32,1.82,1.99.32.34.64.67.97,1.02.65.68,1.33,1.38,2.02,2.09.35.36.7.73,1.05,1.09.72.74,1.45,1.49,2.2,2.26.38.4.76.8,1.13,1.2.37.39.74.78,1.12,1.18.75.79,1.51,1.62,2.28,2.48t0,0c.39.43.78.85,1.17,1.3.47.54.95,1.09,1.43,1.65.29.34.58.67.88,1-.31-.33-.6-.65-.89-.99-.48-.56-.95-1.11-1.43-1.64-.83,6.48.86,15.13,8.2,26.61Z"/>
          <path class="cls-5" d="M84.78,329.06c-.7-.56-1.39-1.14-2.05-1.76.66.6,1.35,1.18,2.05,1.76Z"/>
        </g>
        <path class="cls-4" d="M247.89,265.79c0,9.02.71,15.01,3.62,23.16,1.66,4.66,1.46,17.72,8.7,15.41,1.38-4.77-1.93-10.87-1.96-16.15-.03-4.66.48-9.58,0-14.21-.93-9.05-4.3-22.1-15.78-22.11-.21,3.25-.09,6.5,5.42,13.9Z"/>
        <path class="cls-4" d="M255.48,313.43c-10.35.13-15.4,7.62-24.08,12.24-6.67,3.56-20.02,9.48-20.26,17.88,6.84,2.02,16.57-4.11,21.94-6.73,5.38-2.63,21.44-10.8,22.4-23.39Z"/>
      </g>
    </g>
  </g>
</svg>